# xmcd CD database file
#
# Track frame offsets:
#	150
#	11705
#	20752
#	37897
#	52477
#	64242
#	76062
#	88572
#	107787
#	140562
#	154395
#	171602
#
# Disc length: 2448 seconds
#
# Revision: 0
# Processed by: cddbd v1.5.1PL0 Copyright (c) Steve Scherf et al.
# Submitted via: CDex 1.51
#
DISCID=a8098e0c
DTITLE=宮川泰 - ヤマトよ永遠に
DYEAR=1995
DGENRE=Anime
TTITLE0=新宇宙
TTITLE1=未知なる空間を進むヤマト
TTITLE2=重核子爆弾
TTITLE3=愛し合う二人
TTITLE4=傷ついた戦士たち
TTITLE5=制圧される地球
TTITLE6=別れ
TTITLE7=暗黒星団帝国
TTITLE8=サーシャ(澪)
TTITLE9=のこされて
TTITLE10=黒色銀河
TTITLE11=キーマン少尉
EXTD=YEAR: 1995
EXTT0=
EXTT1=
EXTT2=
EXTT3=
EXTT4=
EXTT5=
EXTT6=
EXTT7=
EXTT8=
EXTT9=
EXTT10=
EXTT11=
PLAYORDER=
